<?xml version="1.0" encoding="utf-8"?>
<!-- Generator: Adobe Illustrator 15.1.0, SVG Export Plug-In . SVG Version: 6.00 Build 0)  -->
<!DOCTYPE svg PUBLIC "-//W3C//DTD SVG 1.1//EN" "http://www.w3.org/Graphics/SVG/1.1/DTD/svg11.dtd">
<svg version="1.1" id="Layer_1" xmlns="http://www.w3.org/2000/svg" xmlns:xlink="http://www.w3.org/1999/xlink" x="0px" y="0px"
	 width="516.125px" height="516.125px" viewBox="0 0 516.125 516.125" enable-background="new 0 0 516.125 516.125"
	 xml:space="preserve">
<path d="M258.062,516.125C115.767,516.125,0,400.356,0,258.066C0,115.767,115.767,0,258.062,0s258.062,115.766,258.062,258.068
	C516.125,400.358,400.358,516.125,258.062,516.125z M258.062,30.601c-125.423,0-227.462,102.045-227.462,227.468
	c0,125.417,102.039,227.456,227.462,227.456s227.462-102.039,227.462-227.456C485.524,132.646,383.485,30.601,258.062,30.601z
	 M218.283,337.629v-159.12c0-8.452-6.85-15.3-15.301-15.3s-15.3,6.848-15.3,15.3v159.12c0,8.449,6.848,15.3,15.3,15.3
	S218.283,346.08,218.283,337.629z M328.442,337.629v-159.12c0-8.452-6.849-15.3-15.3-15.3c-8.452,0-15.3,6.848-15.3,15.3v159.12
	c0,8.449,6.848,15.3,15.3,15.3C321.594,352.929,328.442,346.08,328.442,337.629z"/>
</svg>
