<?xml version="1.0" encoding="utf-8"?>
<!-- Generator: Adobe Illustrator 15.1.0, SVG Export Plug-In . SVG Version: 6.00 Build 0)  -->
<!DOCTYPE svg PUBLIC "-//W3C//DTD SVG 1.1//EN" "http://www.w3.org/Graphics/SVG/1.1/DTD/svg11.dtd">
<svg version="1.1" id="Layer_1" xmlns="http://www.w3.org/2000/svg" xmlns:xlink="http://www.w3.org/1999/xlink" x="0px" y="0px"
	 width="516.125px" height="516.125px" viewBox="0 0 516.125 516.125" enable-background="new 0 0 516.125 516.125"
	 xml:space="preserve">
<path d="M258.062,516.125C115.767,516.125,0,400.356,0,258.062S115.767,0,258.062,0s258.062,115.766,258.062,258.062
	S400.358,516.125,258.062,516.125z M258.062,30.601c-125.423,0-227.462,102.039-227.462,227.462S132.64,485.524,258.062,485.524
	s227.462-102.039,227.462-227.462S383.485,30.601,258.062,30.601z M204.764,366.619c-2.644,0-5.281-0.68-7.65-2.051
	c-4.73-2.729-7.65-7.777-7.65-13.249V164.806c0-5.471,2.919-10.52,7.65-13.25c4.731-2.736,10.569-2.736,15.301,0l161.524,93.256
	c4.73,2.729,7.65,7.778,7.65,13.25s-2.92,10.521-7.65,13.25l-161.524,93.256C210.044,365.939,207.408,366.619,204.764,366.619z
	 M220.063,191.306v133.514l115.625-66.757L220.063,191.306z"/>
</svg>
