<?xml version="1.0" encoding="utf-8"?>
<!-- Generator: Adobe Illustrator 26.0.1, SVG Export Plug-In . SVG Version: 6.00 Build 0)  -->
<svg version="1.1"
	 id="Layer_1" xmlns:cc="http://creativecommons.org/ns#" xmlns:dc="http://purl.org/dc/elements/1.1/" xmlns:inkscape="http://www.inkscape.org/namespaces/inkscape" xmlns:rdf="http://www.w3.org/1999/02/22-rdf-syntax-ns#" xmlns:sodipodi="http://sodipodi.sourceforge.net/DTD/sodipodi-0.dtd" xmlns:svg="http://www.w3.org/2000/svg"
	 xmlns="http://www.w3.org/2000/svg" xmlns:xlink="http://www.w3.org/1999/xlink" x="0px" y="0px" viewBox="0 0 80 100"
	 style="enable-background:new 0 0 80 100;" xml:space="preserve">
<style type="text/css">
	.st0{fill-rule:evenodd;clip-rule:evenodd;}
</style>
<g transform="translate(0,-972.3622)">
	<path class="st0" d="M51.9,1003.9c-0.5,0-0.9,0.2-1.3,0.4l-24,16c-1.1,0.8-1.5,2.3-0.7,3.5c0.2,0.3,0.4,0.5,0.7,0.7l24,16
		c1.1,0.8,2.7,0.5,3.5-0.7c0.3-0.4,0.4-0.9,0.4-1.4v-32C54.5,1005,53.4,1003.9,51.9,1003.9C52,1003.9,52,1003.9,51.9,1003.9z
		 M49.5,1011v22.7l-17-11.3L49.5,1011z"/>
	<path class="st0" d="M28,1003.8c-1.4,0-2.5,1.2-2.5,2.5v32c0,1.4,1.1,2.5,2.5,2.5s2.5-1.1,2.5-2.5c0,0,0,0,0-0.1v-32
		C30.5,1005,29.4,1003.8,28,1003.8C28,1003.8,28,1003.8,28,1003.8z"/>
	<path d="M40,982.4c-22.1,0-40,17.9-40,40c0,22.1,17.9,40,40,40s40-17.9,40-40C80,1000.3,62.1,982.4,40,982.4z M40,987.4
		c19.4,0,35,15.6,35,35s-15.6,35-35,35s-35-15.6-35-35S20.6,987.4,40,987.4z"/>
</g>
</svg>
