<?xml version="1.0" encoding="utf-8"?>
<!-- Generator: Adobe Illustrator 15.1.0, SVG Export Plug-In . SVG Version: 6.00 Build 0)  -->
<!DOCTYPE svg PUBLIC "-//W3C//DTD SVG 1.1//EN" "http://www.w3.org/Graphics/SVG/1.1/DTD/svg11.dtd">
<svg version="1.1" id="Layer_1" xmlns="http://www.w3.org/2000/svg" xmlns:xlink="http://www.w3.org/1999/xlink" x="0px" y="0px"
	 width="516.125px" height="516.125px" viewBox="0 0 516.125 516.125" enable-background="new 0 0 516.125 516.125"
	 xml:space="preserve">
<g>
	<path d="M258.062,0C115.767,0,0,115.767,0,258.062s115.766,258.062,258.062,258.062s258.062-115.767,258.062-258.062
		S400.358,0,258.062,0z M258.062,485.524c-125.423,0-227.462-102.039-227.462-227.462S132.64,30.601,258.062,30.601
		S485.524,132.64,485.524,258.062S383.485,485.524,258.062,485.524z"/>
	<path d="M380.634,164.254c-4.73-2.735-10.569-2.735-15.3,0l-116.58,67.308v-54.058c0-5.471-2.92-10.521-7.65-13.25
		c-4.73-2.735-10.568-2.735-15.3,0l-139.53,80.558c-4.73,2.729-7.65,7.779-7.65,13.25s2.919,10.521,7.65,13.25l139.53,80.558
		c2.368,1.371,5.006,2.052,7.649,2.052c2.645,0,5.281-0.681,7.65-2.052c4.73-2.729,7.65-7.776,7.65-13.25v-54.058L365.34,351.87
		c2.366,1.371,5.006,2.052,7.648,2.052c2.646,0,5.281-0.681,7.649-2.052c4.729-2.729,7.648-7.776,7.648-13.25V177.504
		C388.284,172.034,385.371,166.984,380.634,164.254z M218.153,312.121l-93.63-54.059l93.63-54.059V312.121z M357.684,312.121
		l-93.63-54.059l93.637-54.059v108.117H357.684z"/>
</g>
</svg>
