<svg xmlns="http://www.w3.org/2000/svg" enable-background="new 0 0 100 100" viewBox="0 0 100 125" x="0px" y="0px"><path d="m50.3 24.4 5.9 18.2h19.1l-15.4 11.2 5.9 18.2-15.5-11.2-15.4 11.2 5.9-18.2-15.5-11.2h19.1zm0-4c-1.7 0-3.3 1.1-3.8 2.8l-5 15.4h-16.2c-1.7 0-3.3 1.1-3.8 2.8s.1 3.5 1.5 4.5l13.1 9.5-5 15.4c-.5 1.6.1 3.5 1.5 4.5.7.5 1.5.8 2.4.8.8 0 1.7-.3 2.4-.8l13.1-9.5 13.1 9.5c.7.5 1.5.8 2.4.8.8 0 1.7-.3 2.4-.8 1.4-1 2-2.8 1.5-4.5l-5-15.4 13-9.5c1-.7 1.7-1.9 1.7-3.3 0-2.2-1.8-4-4-4h-16.5l-5-15.4c-.5-1.6-2-2.8-3.8-2.8z"/></svg>