<svg xmlns="http://www.w3.org/2000/svg" xmlns:xlink="http://www.w3.org/1999/xlink" version="1.1" enable-background="new 0 0 100 97.214" xml:space="preserve" width="100" height="97" style=""><rect id="backgroundrect" width="100%" height="100%" x="0" y="0" fill="none" stroke="none" class="" style=""/><g class="currentLayer" style=""><title>Layer 1</title><path fill="#ebeb1a" d="M52.08382673674822,1.579001173872761 C51.79582673674822,0.6410011738727609 50.93182673674822,0.0010011738727607738 49.95082673674822,0.00000117387276077352 c-0.98,-0.0010000000000000002 -1.847,0.6370000000000001 -2.137,1.572 l-9.991,32.28 c-0.28900000000000003,0.935 -1.155,1.573 -2.134,1.573 H2.2328267367482186 c-0.9690000000000001,0 -1.8290000000000002,0.6260000000000001 -2.126,1.55 c-0.29600000000000004,0.924 0.037000000000000005,1.933 0.8270000000000001,2.499 l27.275,19.534 c0.791,0.5650000000000001 1.123,1.578 0.8250000000000001,2.503 L18.446826736748218,94.29300117387277 c-0.29900000000000004,0.927 0.037000000000000005,1.94 0.8310000000000001,2.5060000000000002 c0.793,0.5650000000000001 1.859,0.552 2.638,-0.036000000000000004 L48.619826736748216,76.66600117387276 c0.793,-0.5970000000000001 1.8880000000000001,-0.6000000000000001 2.6830000000000003,-0.003000000000000001 l26.782,20.072 c0.776,0.5820000000000001 1.8410000000000002,0.5960000000000001 2.632,0.03400000000000001 c0.791,-0.5630000000000001 1.129,-1.5710000000000002 0.8350000000000001,-2.497 L71.18982673674822,61.596001173872764 c-0.29100000000000004,-0.918 0.037000000000000005,-1.9180000000000001 0.8160000000000001,-2.483 l27.071,-19.647 c0.782,-0.5680000000000001 1.111,-1.5750000000000002 0.8130000000000001,-2.497 c-0.29900000000000004,-0.921 -1.1560000000000001,-1.5430000000000001 -2.124,-1.5430000000000001 H64.09582673674822 c-0.98,0 -1.846,-0.6420000000000001 -2.134,-1.5790000000000002 L52.08382673674822,1.579001173872761 z" id="svg_1" class="selected" fill-opacity="1" opacity="0.96"/></g></svg>