<svg xmlns="http://www.w3.org/2000/svg" xmlns:xlink="http://www.w3.org/1999/xlink" version="1.1" enable-background="new 0 0 100 100" xml:space="preserve" width="89" height="84"><rect id="backgroundrect" width="100%" height="100%" x="0" y="0" fill="none" stroke="none" class="" style=""/><g class="currentLayer" style=""><title>Layer 1</title><path d="M34.67097212982178,31.143000091552736 c-0.30900000000000005,-0.1 -0.6270000000000001,-0.09300000000000003 -0.916,0.003000000000000001 c-0.6310000000000001,0.17300000000000001 -1.082,0.7550000000000001 -1.082,1.447 c0,0.8280000000000001 0.6960000000000002,1.5 1.524,1.5 c0.6490000000000001,0 1.24,-0.465 1.441,-1.082 C35.89597212982178,32.223000091552734 35.457972129821776,31.40100009155273 34.67097212982178,31.143000091552736 z" id="svg_1" class=""/><path d="M36.826972129821776,19.643000091552736 l-0.03300000000000001,0.10300000000000001 c-0.256,0.788 0.17700000000000002,1.6340000000000001 0.9650000000000001,1.8890000000000002 c0.15300000000000002,0.05000000000000001 0.31000000000000005,0.07300000000000001 0.462,0.07300000000000001 c0.6330000000000001,0 1.222,-0.403 1.427,-1.038 l0.03300000000000001,-0.10300000000000001 c0.256,-0.788 -0.17700000000000002,-1.6340000000000001 -0.9650000000000001,-1.8890000000000002 C37.92597212982178,18.421000091552735 37.08197212982178,18.855000091552736 36.826972129821776,19.643000091552736 z" id="svg_2" class=""/><path d="M41.66697212982178,14.453000091552735 l0.03300000000000001,-0.10200000000000001 c0.258,-0.787 -0.17200000000000001,-1.6340000000000001 -0.9600000000000001,-1.8920000000000001 c-0.785,-0.258 -1.6340000000000001,0.17300000000000001 -1.8920000000000001,0.9600000000000001 l-0.03300000000000001,0.10200000000000001 c-0.258,0.787 0.17200000000000001,1.6340000000000001 0.9600000000000001,1.8920000000000001 c0.15400000000000003,0.05100000000000001 0.31200000000000006,0.07400000000000001 0.466,0.07400000000000001 C40.872972129821775,15.487000091552733 41.45997212982178,15.085000091552736 41.66697212982178,14.453000091552735 z" id="svg_3" class=""/><path d="M42.262972129821776,9.267000091552735 c0.6380000000000001,0 1.229,-0.40900000000000003 1.431,-1.05 l0.03200000000000001,-0.10300000000000001 c0.24900000000000003,-0.791 -0.19000000000000003,-1.633 -0.98,-1.8810000000000002 c-0.798,-0.254 -1.633,0.19000000000000003 -1.8810000000000002,0.98 l-0.03200000000000001,0.10300000000000001 c-0.24900000000000003,0.791 0.19000000000000003,1.633 0.98,1.8810000000000002 C41.96297212982178,9.246000091552734 42.113972129821775,9.267000091552735 42.262972129821776,9.267000091552735 z" id="svg_4" class=""/><path d="M36.19997212982178,27.927000091552735 c0.6320000000000001,0 1.219,-0.401 1.4260000000000002,-1.034 l0.03300000000000001,-0.10200000000000001 c0.258,-0.787 -0.17200000000000001,-1.6340000000000001 -0.9600000000000001,-1.8920000000000001 c-0.784,-0.257 -1.6340000000000001,0.17300000000000001 -1.8920000000000001,0.9600000000000001 l-0.03300000000000001,0.10200000000000001 c-0.258,0.787 0.17200000000000001,1.6340000000000001 0.9600000000000001,1.8920000000000001 C35.88897212982178,27.90400009155273 36.04597212982178,27.927000091552735 36.19997212982178,27.927000091552735 z" id="svg_5" class=""/><path d="M44.29897212982178,9.155273428262944e-8 c-0.6490000000000001,0 -1.225,0.41700000000000004 -1.4260000000000002,1.034 l-0.016000000000000004,0.04800000000000001 c-0.22300000000000003,0.6830000000000002 0.07600000000000001,1.3920000000000001 0.6730000000000002,1.7360000000000002 c0.22700000000000004,0.135 0.49000000000000005,0.20800000000000002 0.7630000000000001,0.20800000000000002 c0.15800000000000003,0 0.31900000000000006,-0.024000000000000004 0.47900000000000004,-0.07600000000000001 c0.787,-0.258 1.209,-1.1280000000000001 0.9520000000000001,-1.916 C45.52397212982178,0.4170000915527341 44.94797212982178,9.155273428262944e-8 44.29897212982178,9.155273428262944e-8 z" id="svg_6" class=""/><path d="M49.87697212982178,18.680000091552735 c-0.788,0.258 -1.218,1.104 -0.9600000000000001,1.8920000000000001 l0.03300000000000001,0.10200000000000001 c0.20700000000000002,0.6330000000000001 0.794,1.034 1.4260000000000002,1.034 c0.15400000000000003,0 0.31200000000000006,-0.023000000000000007 0.466,-0.07400000000000001 c0.788,-0.258 1.218,-1.104 0.9600000000000001,-1.8920000000000001 l-0.03300000000000001,-0.10200000000000001 C51.51097212982178,18.852000091552735 50.66197212982178,18.421000091552735 49.87697212982178,18.680000091552735 z" id="svg_7" class=""/><path d="M46.92897212982178,14.450000091552734 c0.20500000000000002,0.6350000000000001 0.794,1.038 1.427,1.038 c0.15200000000000002,0 0.30900000000000005,-0.023000000000000007 0.462,-0.07300000000000001 c0.788,-0.255 1.221,-1.101 0.9650000000000001,-1.8890000000000002 l-0.03300000000000001,-0.10300000000000001 c-0.254,-0.787 -1.098,-1.221 -1.8890000000000002,-0.9650000000000001 c-0.788,0.255 -1.221,1.101 -0.9650000000000001,1.8890000000000002 L46.92897212982178,14.450000091552734 z" id="svg_8" class=""/><path d="M52.396972129821776,27.928000091552732 c0.14800000000000002,0 0.30000000000000004,-0.022000000000000006 0.45,-0.06900000000000002 c0.79,-0.24800000000000003 1.229,-1.09 0.98,-1.8810000000000002 l-0.03200000000000001,-0.10300000000000001 c-0.24800000000000003,-0.79 -1.084,-1.229 -1.8810000000000002,-0.98 c-0.79,0.24800000000000003 -1.229,1.09 -0.98,1.8810000000000002 l0.03200000000000001,0.10300000000000001 C51.16697212982178,27.519000091552734 51.75797212982178,27.928000091552732 52.396972129821776,27.928000091552732 z" id="svg_9" class=""/><path d="M46.80097212982178,9.193000091552735 c0.788,-0.258 1.218,-1.104 0.9600000000000001,-1.8920000000000001 l-0.03300000000000001,-0.10200000000000001 c-0.258,-0.787 -1.107,-1.22 -1.8920000000000001,-0.9600000000000001 c-0.788,0.258 -1.218,1.104 -0.9600000000000001,1.8920000000000001 l0.03300000000000001,0.10200000000000001 c0.20700000000000002,0.6330000000000001 0.794,1.034 1.4260000000000002,1.034 C46.488972129821775,9.267000091552735 46.646972129821776,9.244000091552735 46.80097212982178,9.193000091552735 z" id="svg_10" class=""/><path d="M54.44997212982178,34.09300009155273 c0.8280000000000001,0 1.475,-0.6720000000000002 1.475,-1.5 c0,-0.32200000000000006 -0.10400000000000001,-0.6200000000000001 -0.28200000000000003,-0.8650000000000001 c-0.35900000000000004,-0.55 -1.053,-0.801 -1.7160000000000002,-0.5850000000000001 c-0.787,0.258 -1.209,1.1280000000000001 -0.9520000000000001,1.916 C53.17597212982178,33.67600009155274 53.80097212982178,34.09300009155273 54.44997212982178,34.09300009155273 z" id="svg_11" class=""/><path d="M60.990972129821785,31.09300009155273 h-0.10700000000000001 c-0.8280000000000001,0 -1.5,0.6720000000000002 -1.5,1.5 s0.6720000000000002,1.5 1.5,1.5 h0.10700000000000001 c0.8280000000000001,0 1.5,-0.6720000000000002 1.5,-1.5 S61.81997212982178,31.09300009155273 60.990972129821785,31.09300009155273 z" id="svg_12" class=""/><path d="M69.03197212982178,32.59300009155273 c0,-0.8280000000000001 -0.6720000000000002,-1.5 -1.5,-1.5 h-0.10700000000000001 c-0.8280000000000001,0 -1.5,0.6720000000000002 -1.5,1.5 s0.6720000000000002,1.5 1.5,1.5 h0.10700000000000001 C68.36097212982177,34.09300009155273 69.03197212982178,33.421000091552735 69.03197212982178,32.59300009155273 z" id="svg_13" class=""/><path d="M80.61297212982177,34.09300009155273 c0.8280000000000001,0 1.5,-0.6720000000000002 1.5,-1.5 s-0.6720000000000002,-1.5 -1.5,-1.5 h-0.10600000000000001 c-0.8280000000000001,0 -1.5,0.6720000000000002 -1.5,1.5 s0.6720000000000002,1.5 1.5,1.5 H80.61297212982177 z" id="svg_14" class=""/><path d="M73.96597212982178,34.09300009155273 h0.10700000000000001 c0.8280000000000001,0 1.5,-0.6720000000000002 1.5,-1.5 s-0.6720000000000002,-1.5 -1.5,-1.5 h-0.10700000000000001 c-0.8280000000000001,0 -1.5,0.6720000000000002 -1.5,1.5 S73.13797212982178,34.09300009155273 73.96597212982178,34.09300009155273 z" id="svg_15" class=""/><path d="M87.09797212982178,31.09300009155273 h-0.05000000000000001 c-0.7210000000000001,0 -1.3050000000000002,0.509 -1.443,1.187 c-0.08900000000000002,0.406 -0.005000000000000001,0.8480000000000001 0.263,1.214 c0.29100000000000004,0.3970000000000001 0.7470000000000001,0.6040000000000001 1.211,0.6040000000000001 c0.31500000000000006,0 0.6340000000000001,-0.09600000000000003 0.905,-0.29400000000000004 c0.523,-0.38400000000000006 0.7410000000000001,-1.061 0.54,-1.677 C88.32197212982177,31.510000091552733 87.74597212982178,31.09300009155273 87.09797212982178,31.09300009155273 z" id="svg_16" class=""/><path d="M80.96797212982177,35.19300009155273 l-0.08700000000000002,0.06300000000000001 c-0.6690000000000002,0.48800000000000004 -0.8150000000000001,1.427 -0.32600000000000007,2.096 c0.29300000000000004,0.402 0.7500000000000001,0.6150000000000001 1.212,0.6150000000000001 c0.30700000000000005,0 0.6170000000000001,-0.09400000000000003 0.8840000000000001,-0.28900000000000003 l0.08700000000000002,-0.06300000000000001 c0.6690000000000002,-0.48800000000000004 0.8150000000000001,-1.427 0.32600000000000007,-2.096 C82.57597212982178,34.84900009155273 81.63697212982177,34.704000091552736 80.96797212982177,35.19300009155273 z" id="svg_17" class=""/><path d="M65.10197212982177,46.720000091552734 l-0.08700000000000002,0.06300000000000001 c-0.6720000000000002,0.48300000000000004 -0.8250000000000001,1.421 -0.3420000000000001,2.094 c0.29300000000000004,0.40700000000000003 0.7530000000000001,0.6240000000000001 1.219,0.6240000000000001 c0.30400000000000005,0 0.6090000000000001,-0.09200000000000003 0.8750000000000001,-0.28200000000000003 l0.08700000000000002,-0.06300000000000001 c0.6720000000000002,-0.48300000000000004 0.8250000000000001,-1.421 0.3420000000000001,-2.094 C66.71197212982177,46.390000091552736 65.77597212982178,46.23900009155273 65.10197212982177,46.720000091552734 z" id="svg_18" class=""/><path d="M76.47497212982178,41.811000091552735 c0.30400000000000005,0 0.6090000000000001,-0.09200000000000003 0.8750000000000001,-0.28200000000000003 l0.08700000000000002,-0.06300000000000001 c0.6720000000000002,-0.48300000000000004 0.8250000000000001,-1.421 0.3420000000000001,-2.094 c-0.48300000000000004,-0.6720000000000002 -1.42,-0.8240000000000001 -2.094,-0.3420000000000001 l-0.08700000000000002,0.06300000000000001 c-0.6720000000000002,0.48300000000000004 -0.8250000000000001,1.421 -0.3420000000000001,2.094 C75.54897212982178,41.594000091552736 76.00897212982177,41.811000091552735 76.47497212982178,41.811000091552735 z" id="svg_19" class=""/><path d="M72.48197212982178,43.211000091552734 c-0.48700000000000004,-0.6720000000000002 -1.429,-0.8190000000000001 -2.095,-0.33100000000000007 l-0.08600000000000002,0.06300000000000001 c-0.6700000000000002,0.48700000000000004 -0.8180000000000001,1.425 -0.33100000000000007,2.095 c0.29300000000000004,0.404 0.7510000000000001,0.6180000000000001 1.214,0.6180000000000001 c0.30700000000000005,0 0.6150000000000001,-0.09300000000000003 0.8810000000000001,-0.28700000000000003 l0.08600000000000002,-0.06300000000000001 C72.81997212982178,44.81900009155274 72.96897212982178,43.881000091552735 72.48197212982178,43.211000091552734 z" id="svg_20" class=""/><path d="M59.75897212982177,50.601000091552734 c-0.523,0.38400000000000006 -0.7260000000000001,1.107 -0.524,1.725 c0.20500000000000002,0.6280000000000001 0.78,1.013 1.404,1.013 c0.15800000000000003,0 0.31900000000000006,-0.024000000000000004 0.47900000000000004,-0.07600000000000001 c0.30900000000000005,-0.10200000000000001 0.561,-0.29600000000000004 0.7380000000000001,-0.544 c0.40700000000000003,-0.512 0.42700000000000005,-1.248 0.019000000000000003,-1.807 C61.38697212982177,50.244000091552735 60.42997212982178,50.11200009155274 59.75897212982177,50.601000091552734 z" id="svg_21" class=""/><path d="M63.274972129821776,64.75900009155274 c0.20500000000000002,0.6350000000000001 0.794,1.038 1.427,1.038 c0.15200000000000002,0 0.30900000000000005,-0.023000000000000007 0.462,-0.07300000000000001 c0.788,-0.255 1.221,-1.101 0.9650000000000001,-1.8890000000000002 l-0.03300000000000001,-0.10300000000000001 c-0.255,-0.788 -1.099,-1.222 -1.8890000000000002,-0.9650000000000001 c-0.788,0.255 -1.221,1.101 -0.9650000000000001,1.8890000000000002 L63.274972129821776,64.75900009155274 z" id="svg_22" class=""/><path d="M67.31697212982178,77.20100009155273 c0.20700000000000002,0.6330000000000001 0.794,1.034 1.4260000000000002,1.034 c0.15400000000000003,0 0.31200000000000006,-0.023000000000000007 0.466,-0.07400000000000001 c0.788,-0.258 1.218,-1.104 0.9600000000000001,-1.8920000000000001 l-0.03300000000000001,-0.10200000000000001 c-0.258,-0.787 -1.107,-1.22 -1.8920000000000001,-0.9600000000000001 c-0.788,0.258 -1.218,1.104 -0.9600000000000001,1.8920000000000001 L67.31697212982178,77.20100009155273 z" id="svg_23" class=""/><path d="M68.14897212982177,70.05400009155274 l-0.03300000000000001,-0.10300000000000001 c-0.254,-0.787 -1.098,-1.22 -1.8890000000000002,-0.9650000000000001 c-0.788,0.255 -1.221,1.101 -0.9650000000000001,1.8890000000000002 l0.03300000000000001,0.10300000000000001 c0.20500000000000002,0.6350000000000001 0.794,1.038 1.427,1.038 c0.15200000000000002,0 0.30900000000000005,-0.023000000000000007 0.462,-0.07300000000000001 C67.97197212982178,71.68800009155274 68.40397212982178,70.84200009155273 68.14897212982177,70.05400009155274 z" id="svg_24" class=""/><path d="M63.146972129821776,59.503000091552735 c0.788,-0.258 1.218,-1.104 0.9600000000000001,-1.8920000000000001 l-0.03300000000000001,-0.10200000000000001 c-0.258,-0.787 -1.106,-1.221 -1.8920000000000001,-0.9600000000000001 c-0.788,0.258 -1.218,1.104 -0.9600000000000001,1.8920000000000001 l0.03300000000000001,0.10200000000000001 c0.20700000000000002,0.6330000000000001 0.794,1.034 1.4260000000000002,1.034 C62.83497212982178,59.57800009155273 62.991972129821775,59.55400009155274 63.146972129821776,59.503000091552735 z" id="svg_25" class=""/><path d="M69.85997212982178,84.11100009155274 c0.264,0.19200000000000003 0.5740000000000001,0.28900000000000003 0.8860000000000001,0.28900000000000003 c0.30900000000000005,0 0.6180000000000001,-0.09500000000000003 0.8810000000000001,-0.28500000000000003 c0.526,-0.38300000000000006 0.7470000000000001,-1.062 0.545,-1.681 l-0.016000000000000004,-0.04800000000000001 c-0.22500000000000003,-0.6890000000000002 -0.8940000000000001,-1.09 -1.5910000000000002,-1.002 c-0.403,0.04500000000000001 -0.788,0.258 -1.05,0.6150000000000001 C69.02597212982178,82.66800009155273 69.19097212982177,83.62200009155274 69.85997212982178,84.11100009155274 z" id="svg_26" class=""/><path d="M48.65797212982178,68.70800009155273 l0.08700000000000002,0.06300000000000001 c0.267,0.19500000000000003 0.5760000000000001,0.28900000000000003 0.8840000000000001,0.28900000000000003 c0.462,0 0.919,-0.21300000000000002 1.212,-0.6150000000000001 c0.48900000000000005,-0.6690000000000002 0.3430000000000001,-1.6070000000000002 -0.32600000000000007,-2.096 l-0.08700000000000002,-0.06300000000000001 c-0.6670000000000001,-0.48900000000000005 -1.6070000000000002,-0.3450000000000001 -2.096,0.32600000000000007 C47.842972129821774,67.28100009155274 47.988972129821775,68.21900009155273 48.65797212982178,68.70800009155273 z" id="svg_27" class=""/><path d="M53.94797212982178,72.55100009155274 l0.08700000000000002,0.06300000000000001 c0.267,0.19500000000000003 0.5760000000000001,0.28900000000000003 0.8840000000000001,0.28900000000000003 c0.462,0 0.919,-0.21300000000000002 1.212,-0.6150000000000001 c0.48900000000000005,-0.6690000000000002 0.3430000000000001,-1.6070000000000002 -0.32600000000000007,-2.096 l-0.08700000000000002,-0.06300000000000001 c-0.6670000000000001,-0.48900000000000005 -1.608,-0.3450000000000001 -2.096,0.32600000000000007 C53.13297212982178,71.12500009155274 53.278972129821774,72.06300009155274 53.94797212982178,72.55100009155274 z" id="svg_28" class=""/><path d="M59.247972129821775,76.40200009155274 l0.08700000000000002,0.06300000000000001 c0.266,0.19000000000000003 0.5710000000000001,0.28200000000000003 0.8750000000000001,0.28200000000000003 c0.466,0 0.926,-0.21700000000000003 1.219,-0.6240000000000001 c0.48300000000000004,-0.6730000000000002 0.33000000000000007,-1.61 -0.3420000000000001,-2.094 l-0.08700000000000002,-0.06300000000000001 c-0.6730000000000002,-0.48200000000000004 -1.609,-0.33000000000000007 -2.094,0.3420000000000001 C58.42297212982177,74.98100009155273 58.57597212982178,75.91800009155273 59.247972129821775,76.40200009155274 z" id="svg_29" class=""/><path d="M64.52897212982178,80.23800009155273 l0.08700000000000002,0.06300000000000001 c0.267,0.19500000000000003 0.5760000000000001,0.28900000000000003 0.8840000000000001,0.28900000000000003 c0.462,0 0.919,-0.21300000000000002 1.212,-0.6150000000000001 c0.48900000000000005,-0.6690000000000002 0.3430000000000001,-1.6070000000000002 -0.32600000000000007,-2.096 L66.29897212982178,77.81600009155274 c-0.6680000000000001,-0.48800000000000004 -1.608,-0.3450000000000001 -2.096,0.32600000000000007 C63.713972129821784,78.81100009155273 63.860972129821775,79.75000009155274 64.52897212982178,80.23800009155273 z" id="svg_30" class=""/><path d="M43.802972129821775,65.11700009155274 c0.16700000000000004,0.06300000000000001 0.3410000000000001,0.09500000000000003 0.515,0.09500000000000003 c0.461,0 0.915,-0.21900000000000003 1.212,-0.6240000000000001 c0.48900000000000005,-0.6690000000000002 0.32400000000000007,-1.622 -0.3450000000000001,-2.111 c-0.527,-0.38500000000000006 -1.284,-0.35500000000000004 -1.812,0.029000000000000005 c-0.6690000000000002,0.48900000000000005 -0.794,1.413 -0.30500000000000005,2.082 C43.25797212982178,64.84600009155274 43.51697212982178,65.02400009155274 43.802972129821775,65.11700009155274 z" id="svg_31" class=""/><path d="M38.96897212982178,69.06000009155274 c0.30700000000000005,0 0.6170000000000001,-0.09400000000000003 0.8840000000000001,-0.28900000000000003 l0.08700000000000002,-0.06300000000000001 c0.6690000000000002,-0.48800000000000004 0.8150000000000001,-1.427 0.32600000000000007,-2.096 c-0.48700000000000004,-0.6690000000000002 -1.427,-0.8150000000000001 -2.096,-0.32600000000000007 l-0.08700000000000002,0.06300000000000001 c-0.6690000000000002,0.48800000000000004 -0.8150000000000001,1.427 -0.32600000000000007,2.096 C38.049972129821775,68.84700009155273 38.506972129821776,69.06000009155274 38.96897212982178,69.06000009155274 z" id="svg_32" class=""/><path d="M23.097972129821777,80.59000009155274 c0.30700000000000005,0 0.6170000000000001,-0.09400000000000003 0.8840000000000001,-0.28900000000000003 l0.08700000000000002,-0.06300000000000001 c0.6690000000000002,-0.48800000000000004 0.8150000000000001,-1.427 0.32600000000000007,-2.096 c-0.48700000000000004,-0.6700000000000002 -1.428,-0.8150000000000001 -2.096,-0.32600000000000007 l-0.08700000000000002,0.06300000000000001 c-0.6690000000000002,0.48800000000000004 -0.8150000000000001,1.427 -0.32600000000000007,2.096 C22.178972129821776,80.37700009155273 22.635972129821777,80.59000009155274 23.097972129821777,80.59000009155274 z" id="svg_33" class=""/><path d="M28.387972129821776,76.74700009155274 c0.30700000000000005,0 0.6170000000000001,-0.09400000000000003 0.8840000000000001,-0.28900000000000003 l0.08700000000000002,-0.06300000000000001 c0.6690000000000002,-0.48800000000000004 0.8150000000000001,-1.427 0.32600000000000007,-2.096 c-0.48700000000000004,-0.6700000000000002 -1.427,-0.8160000000000001 -2.096,-0.32600000000000007 l-0.08700000000000002,0.06300000000000001 c-0.6690000000000002,0.48800000000000004 -0.8150000000000001,1.427 -0.32600000000000007,2.096 C27.46897212982178,76.53400009155274 27.92597212982178,76.74700009155274 28.387972129821776,76.74700009155274 z" id="svg_34" class=""/><path d="M32.88897212982178,70.12300009155274 l-0.08700000000000002,0.06300000000000001 c-0.6720000000000002,0.48300000000000004 -0.8250000000000001,1.421 -0.3420000000000001,2.094 c0.29300000000000004,0.40700000000000003 0.7530000000000001,0.6240000000000001 1.219,0.6240000000000001 c0.30400000000000005,0 0.6090000000000001,-0.09200000000000003 0.8750000000000001,-0.28200000000000003 l0.08700000000000002,-0.06300000000000001 c0.6720000000000002,-0.48300000000000004 0.8250000000000001,-1.421 0.3420000000000001,-2.094 C34.49897212982178,69.79200009155274 33.561972129821775,69.64000009155274 32.88897212982178,70.12300009155274 z" id="svg_35" class=""/><path d="M17.852972129821776,84.40000009155274 c0.31100000000000005,0 0.6220000000000001,-0.09700000000000003 0.8860000000000001,-0.28900000000000003 l0.04000000000000001,-0.029000000000000005 c0.5690000000000001,-0.41700000000000004 0.7450000000000001,-1.149 0.48200000000000004,-1.771 c-0.16100000000000003,-0.3950000000000001 -0.49300000000000005,-0.7170000000000001 -0.935,-0.8610000000000001 c-0.789,-0.255 -1.6430000000000002,0.19600000000000004 -1.899,0.984 c-0.202,0.6190000000000001 0.019000000000000003,1.298 0.545,1.681 C17.234972129821777,84.30500009155273 17.54397212982178,84.40000009155274 17.852972129821776,84.40000009155274 z" id="svg_36" class=""/><path d="M25.32297212982178,64.76000009155274 l0.03300000000000001,-0.10300000000000001 c0.256,-0.788 -0.17700000000000002,-1.6340000000000001 -0.9650000000000001,-1.8890000000000002 c-0.79,-0.256 -1.6340000000000001,0.17800000000000002 -1.8890000000000002,0.9650000000000001 l-0.03300000000000001,0.10300000000000001 c-0.256,0.788 0.17700000000000002,1.6340000000000001 0.9650000000000001,1.8890000000000002 c0.15300000000000002,0.05000000000000001 0.31000000000000005,0.07300000000000001 0.462,0.07300000000000001 C24.528972129821778,65.79800009155274 25.117972129821776,65.39500009155273 25.32297212982178,64.76000009155274 z" id="svg_37" class=""/><path d="M19.855972129821776,78.23600009155274 c0.6320000000000001,0 1.219,-0.401 1.4260000000000002,-1.034 l0.03300000000000001,-0.10200000000000001 c0.258,-0.787 -0.17200000000000001,-1.6340000000000001 -0.9600000000000001,-1.8920000000000001 c-0.784,-0.258 -1.6340000000000001,0.17300000000000001 -1.8920000000000001,0.9600000000000001 l-0.03300000000000001,0.10200000000000001 c-0.258,0.787 0.17200000000000001,1.6340000000000001 0.9600000000000001,1.8920000000000001 C19.54397212982178,78.21200009155274 19.70097212982178,78.23600009155274 19.855972129821776,78.23600009155274 z" id="svg_38" class=""/><path d="M25.916972129821776,59.579000091552736 c0.6320000000000001,0 1.219,-0.401 1.4260000000000002,-1.034 l0.03300000000000001,-0.10200000000000001 c0.258,-0.787 -0.17200000000000001,-1.6340000000000001 -0.9600000000000001,-1.8920000000000001 c-0.785,-0.257 -1.6340000000000001,0.17300000000000001 -1.8920000000000001,0.9600000000000001 l-0.03300000000000001,0.10200000000000001 c-0.258,0.787 0.17200000000000001,1.6340000000000001 0.9600000000000001,1.8920000000000001 C25.605972129821776,59.555000091552735 25.762972129821776,59.579000091552736 25.916972129821776,59.579000091552736 z" id="svg_39" class=""/><path d="M21.87597212982178,72.01700009155273 c0.6330000000000001,0 1.222,-0.403 1.427,-1.038 l0.03300000000000001,-0.10300000000000001 c0.256,-0.788 -0.17700000000000002,-1.6340000000000001 -0.9650000000000001,-1.8890000000000002 c-0.79,-0.256 -1.6340000000000001,0.17800000000000002 -1.8890000000000002,0.9650000000000001 l-0.03300000000000001,0.10300000000000001 c-0.256,0.788 0.17700000000000002,1.6340000000000001 0.9650000000000001,1.8890000000000002 C21.567972129821776,71.99400009155273 21.723972129821778,72.01700009155273 21.87597212982178,72.01700009155273 z" id="svg_40" class=""/><path d="M27.479972129821775,53.262000091552736 c0.15000000000000002,0.04900000000000001 0.30300000000000005,0.07200000000000001 0.453,0.07200000000000001 c0.6390000000000001,0 1.238,-0.41900000000000004 1.4460000000000002,-1.057 c0.201,-0.6170000000000001 -0.05700000000000001,-1.322 -0.5800000000000001,-1.706 c-0.6660000000000001,-0.48800000000000004 -1.586,-0.32900000000000007 -2.076,0.3400000000000001 c-0.19000000000000003,0.26 -0.281,0.5630000000000001 -0.28300000000000003,0.8640000000000001 C26.40497212982178,52.433000091552735 26.819972129821778,53.046000091552735 27.479972129821775,53.262000091552736 z" id="svg_41" class=""/><path d="M11.155972129821777,41.46200009155273 l0.08600000000000002,0.06300000000000001 c0.266,0.19400000000000003 0.5740000000000001,0.28700000000000003 0.8810000000000001,0.28700000000000003 c0.463,0 0.921,-0.21400000000000002 1.214,-0.6180000000000001 c0.48700000000000004,-0.6700000000000002 0.3390000000000001,-1.6070000000000002 -0.33100000000000007,-2.095 l-0.08600000000000002,-0.06300000000000001 c-0.6680000000000001,-0.48800000000000004 -1.6070000000000002,-0.3420000000000001 -2.095,0.33100000000000007 C10.337972129821779,40.03800009155273 10.486972129821776,40.97500009155274 11.155972129821777,41.46200009155273 z" id="svg_42" class=""/><path d="M21.736972129821776,49.149000091552736 l0.08700000000000002,0.06300000000000001 c0.267,0.19500000000000003 0.5760000000000001,0.28900000000000003 0.8840000000000001,0.28900000000000003 c0.462,0 0.919,-0.21300000000000002 1.212,-0.6150000000000001 c0.48900000000000005,-0.6690000000000002 0.3430000000000001,-1.6070000000000002 -0.32600000000000007,-2.096 l-0.08700000000000002,-0.06300000000000001 c-0.6670000000000001,-0.48900000000000005 -1.6070000000000002,-0.3450000000000001 -2.096,0.32600000000000007 C20.920972129821777,47.72200009155274 21.067972129821776,48.66100009155274 21.736972129821776,49.149000091552736 z" id="svg_43" class=""/><path d="M16.452972129821777,45.31200009155273 l0.08700000000000002,0.06300000000000001 c0.266,0.19000000000000003 0.5710000000000001,0.28200000000000003 0.8750000000000001,0.28200000000000003 c0.466,0 0.926,-0.21700000000000003 1.219,-0.6240000000000001 c0.48300000000000004,-0.6730000000000002 0.33000000000000007,-1.61 -0.3420000000000001,-2.094 l-0.08700000000000002,-0.06300000000000001 c-0.6720000000000002,-0.48100000000000004 -1.609,-0.33100000000000007 -2.094,0.3420000000000001 C15.627972129821778,43.89100009155273 15.780972129821777,44.829000091552736 16.452972129821777,45.31200009155273 z" id="svg_44" class=""/><path d="M7.7089721298217775,35.250000091552735 l-0.08700000000000002,-0.06300000000000001 c-0.6720000000000002,-0.48200000000000004 -1.609,-0.33000000000000007 -2.094,0.3420000000000001 c-0.48300000000000004,0.6730000000000002 -0.33000000000000007,1.61 0.3420000000000001,2.094 l0.08700000000000002,0.06300000000000001 c0.266,0.19000000000000003 0.5710000000000001,0.28200000000000003 0.8750000000000001,0.28200000000000003 c0.466,0 0.926,-0.21700000000000003 1.219,-0.6240000000000001 C8.533972129821777,36.67000009155274 8.380972129821778,35.73300009155273 7.7089721298217775,35.250000091552735 z" id="svg_45" class=""/><path d="M1.499972129821777,31.09300009155273 c-0.6480000000000001,0 -1.225,0.41700000000000004 -1.4260000000000002,1.034 c-0.201,0.6160000000000001 0.017000000000000005,1.2930000000000001 0.54,1.677 l0.04000000000000001,0.029000000000000005 c0.263,0.19200000000000003 0.5640000000000001,0.28400000000000003 0.8640000000000001,0.28400000000000003 c0.35700000000000004,0 0.7110000000000001,-0.132 0.99,-0.37900000000000006 c0.31700000000000006,-0.275 0.516,-0.6870000000000002 0.516,-1.146 C3.024972129821778,31.765000091552736 2.3279721298217773,31.09300009155273 1.499972129821777,31.09300009155273 z" id="svg_46" class=""/><path d="M8.090972129821777,31.09300009155273 h-0.10700000000000001 c-0.8280000000000001,0 -1.5,0.6720000000000002 -1.5,1.5 s0.6720000000000002,1.5 1.5,1.5 h0.10700000000000001 c0.8280000000000001,0 1.5,-0.6720000000000002 1.5,-1.5 S8.918972129821778,31.09300009155273 8.090972129821777,31.09300009155273 z" id="svg_47" class=""/><path d="M22.672972129821776,32.59300009155273 c0,-0.8280000000000001 -0.6720000000000002,-1.5 -1.5,-1.5 h-0.10700000000000001 c-0.8280000000000001,0 -1.5,0.6720000000000002 -1.5,1.5 s0.6720000000000002,1.5 1.5,1.5 h0.10700000000000001 C22.00097212982178,34.09300009155273 22.672972129821776,33.421000091552735 22.672972129821776,32.59300009155273 z" id="svg_48" class=""/><path d="M27.71297212982178,34.09300009155273 c0.8280000000000001,0 1.5,-0.6720000000000002 1.5,-1.5 s-0.6720000000000002,-1.5 -1.5,-1.5 h-0.10600000000000001 c-0.8280000000000001,0 -1.5,0.6720000000000002 -1.5,1.5 s0.6720000000000002,1.5 1.5,1.5 H27.71297212982178 z" id="svg_49" class=""/><path d="M14.631972129821776,34.09300009155273 c0.8280000000000001,0 1.5,-0.6720000000000002 1.5,-1.5 s-0.6720000000000002,-1.5 -1.5,-1.5 h-0.10700000000000001 c-0.8280000000000001,0 -1.5,0.6720000000000002 -1.5,1.5 s0.6720000000000002,1.5 1.5,1.5 H14.631972129821776 z" id="svg_50" class=""/></g></svg>