<?xml version="1.0" encoding="utf-8"?>
<!-- Generator: Adobe Illustrator 15.1.0, SVG Export Plug-In . SVG Version: 6.00 Build 0)  -->
<!DOCTYPE svg PUBLIC "-//W3C//DTD SVG 1.1//EN" "http://www.w3.org/Graphics/SVG/1.1/DTD/svg11.dtd">
<svg version="1.1" id="Layer_1" xmlns="http://www.w3.org/2000/svg" xmlns:xlink="http://www.w3.org/1999/xlink" x="0px" y="0px"
	 width="516.281px" height="516.125px" viewBox="0 0 516.281 516.125" enable-background="new 0 0 516.281 516.125"
	 xml:space="preserve">
<path d="M258.141,516.125c-142.296,0-258.062-115.768-258.062-258.058C0.079,115.767,115.845,0,258.141,0
	s258.062,115.766,258.062,258.068C516.203,400.358,400.437,516.125,258.141,516.125z M258.141,30.601
	c-125.423,0-227.462,102.045-227.462,227.468c0,125.417,102.039,227.456,227.462,227.456s227.462-102.039,227.462-227.456
	C485.603,132.646,383.563,30.601,258.141,30.601z M337.7,352.929h-159.12c-8.452,0-15.3-6.851-15.3-15.3v-159.12
	c0-8.452,6.848-15.3,15.3-15.3H337.7c8.452,0,15.303,6.848,15.303,15.3v159.12C353.001,346.08,346.152,352.929,337.7,352.929z
	 M193.881,322.328H322.4v-128.52h-128.52V322.328z"/>
</svg>
