<svg xmlns="http://www.w3.org/2000/svg" xmlns:xlink="http://www.w3.org/1999/xlink" version="1.1" x="0px" y="0px" viewBox="0 0 20 25" style="enable-background:new 0 0 20 20;" xml:space="preserve"><g><path d="M18,5.2c-0.4-0.4-1-0.4-1.4,0s-0.4,1,0,1.4c1.9,1.9,1.9,4.9,0,6.8c-0.4,0.4-0.4,1,0,1.4c0.4,0.4,1,0.4,1.4,0   C20.7,12.2,20.7,7.8,18,5.2z"/><path d="M13.5,0.1L5.8,4H3C1.3,4,0,5.3,0,7v6c0,1.7,1.3,3,3,3h2.8l7.8,3.9c0.7,0.3,1.4-0.2,1.4-0.9V1C15,0.3,14.2-0.2,13.5,0.1z    M2,13V7c0-0.6,0.4-1,1-1h2v8H3C2.4,14,2,13.6,2,13z M13,17.4l-6-3V5.6l6-3V17.4z"/></g><text x="0" y="35" fill="#000000" font-size="5px" font-weight="bold" font-family="'Helvetica Neue', Helvetica, Arial-Unicode, Arial, Sans-serif">Created by ProSymbols</text><text x="0" y="40" fill="#000000" font-size="5px" font-weight="bold" font-family="'Helvetica Neue', Helvetica, Arial-Unicode, Arial, Sans-serif">from the Noun Project</text></svg>