<?xml version="1.0" encoding="utf-8"?>
<!-- Generator: Adobe Illustrator 26.0.1, SVG Export Plug-In . SVG Version: 6.00 Build 0)  -->
<svg version="1.1" id="Layer_1" xmlns="http://www.w3.org/2000/svg" xmlns:xlink="http://www.w3.org/1999/xlink" x="0px" y="0px"
	 viewBox="0 0 20 25" style="enable-background:new 0 0 20 25;" xml:space="preserve">
<g>
	<path d="M18,7.7c-0.4-0.4-1-0.4-1.4,0s-0.4,1,0,1.4c1.9,1.9,1.9,4.9,0,6.8c-0.4,0.4-0.4,1,0,1.4s1,0.4,1.4,0
		C20.7,14.7,20.7,10.3,18,7.7z"/>
	<path d="M13.5,2.6L5.8,6.5H3c-1.7,0-3,1.3-3,3v6c0,1.7,1.3,3,3,3h2.8l7.8,3.9c0.7,0.3,1.4-0.2,1.4-0.9v-18
		C15,2.8,14.2,2.3,13.5,2.6z M2,15.5v-6c0-0.6,0.4-1,1-1h2v8H3C2.4,16.5,2,16.1,2,15.5z M13,19.9l-6-3V8.1l6-3V19.9z"/>
</g>
</svg>
